<svg xmlns="http://www.w3.org/2000/svg" viewBox="0 0 640 640"><!--!Font Awesome Free 7.1.0 by @fontawesome - https://fontawesome.com License - https://fontawesome.com/license/free Copyright 2025 Fonticons, Inc.--><path d="M524.5 133.8c-.2-.3-.4-.6-.8-.7-38.1-17.5-78.4-30-119.7-37.1-.4-.1-.8 0-1.1.1-.3.1-.6.4-.8.8-5.5 9.9-10.5 20.2-14.9 30.6-44.6-6.8-89.9-6.8-134.4 0-4.5-10.5-9.5-20.7-15.1-30.6-.2-.3-.5-.6-.8-.8-.3-.2-.7-.2-1.1-.2-41.3 7.1-81.6 19.6-119.7 37.1-.3.1-.6.4-.8.7-76.2 113.8-97.1 224.9-86.9 334.5 0 .3.1.5.2.8.1.3.3.4.5.6 44.4 32.9 94 58 146.8 74.2.4.1.8.1 1.1 0 .3-.1.7-.4.9-.7 11.3-15.4 21.4-31.8 30-48.8.1-.2.2-.5.2-.8 0-.3 0-.5-.1-.8-.1-.3-.2-.5-.4-.6-.2-.1-.4-.3-.7-.4-15.8-6.1-31.2-13.4-45.9-21.9-.3-.2-.5-.4-.7-.6-.2-.2-.3-.6-.3-.9 0-.3 0-.6.2-.9.2-.3.3-.5.6-.7 3.1-2.3 6.2-4.7 9.1-7.1.3-.2.6-.4.9-.4.3 0 .7 0 1 .1 96.2 43.9 200.4 43.9 295.5 0 .3-.1.7-.2 1-.2.3 0 .7.2.9.4 2.9 2.4 6 4.9 9.1 7.2.2.2.4.4.6.7.2.3.2.6.2.9 0 .3-.1.6-.3.9-.2.3-.4.5-.6.6-14.7 8.6-30 15.9-45.9 21.8-.2.1-.5.2-.7.4-.2.2-.3.4-.4.7-.1.3-.1.5-.1.8 0 .3.1.5.2.8 8.8 17 18.8 33.3 30 48.8.2.3.6.6.9.7.3.1.8.1 1.1 0 52.9-16.2 102.6-41.3 147.1-74.2.2-.2.4-.4.5-.6.1-.2.2-.5.2-.8 12.3-126.8-20.5-236.9-86.9-334.5zm-302 267.7c-29 0-52.8-26.6-52.8-59.2s23.4-59.2 52.8-59.2c29.7 0 53.3 26.8 52.8 59.2 0 32.7-23.4 59.2-52.8 59.2zm195.4 0c-29 0-52.8-26.6-52.8-59.2s23.4-59.2 52.8-59.2c29.7 0 53.3 26.8 52.8 59.2 0 32.7-23.2 59.2-52.8 59.2z"/></svg>