<svg xmlns="http://www.w3.org/2000/svg" viewBox="0 0 640 640"><!--!Font Awesome Free 7.1.0 by @fontawesome - https://fontawesome.com License - https://fontawesome.com/license/free Copyright 2025 Fonticons, Inc.--><path d="M448 128c106 0 192 86 192 192s-86 192-192 192H192C86 512 0 426 0 320s86-192 192-192h256zM192 240c-13.3 0-24 10.7-24 24v32h-32c-13.3 0-24 10.7-24 24s10.7 24 24 24h32v32c0 13.3 10.7 24 24 24s24-10.7 24-24v-32h32c13.3 0 24-10.7 24-24s-10.7-24-24-24h-32v-32c0-13.3-10.7-24-24-24zm240 96c-17.7 0-32 14.3-32 32s14.3 32 32 32 32-14.3 32-32-14.3-32-32-32zm64-96c-17.7 0-32 14.3-32 32s14.3 32 32 32 32-14.3 32-32-14.3-32-32-32z"/></svg>