<svg xmlns="http://www.w3.org/2000/svg" viewBox="0 0 640 640"><!--!Font Awesome Free 7.1.0 by @fontawesome - https://fontawesome.com License - https://fontawesome.com/license/free Copyright 2025 Fonticons, Inc.--><path d="M160 96c-35.3 0-64 28.7-64 64v64c0 35.3 28.7 64 64 64h320c35.3 0 64-28.7 64-64v-64c0-35.3-28.7-64-64-64H160zm216 72c13.3 0 24 10.7 24 24s-10.7 24-24 24-24-10.7-24-24 10.7-24 24-24zm56 24c0-13.3 10.7-24 24-24s24 10.7 24 24-10.7 24-24 24-24-10.7-24-24zM160 352c-35.3 0-64 28.7-64 64v64c0 35.3 28.7 64 64 64h320c35.3 0 64-28.7 64-64v-64c0-35.3-28.7-64-64-64H160zm216 72c13.3 0 24 10.7 24 24s-10.7 24-24 24-24-10.7-24-24 10.7-24 24-24zm56 24c0-13.3 10.7-24 24-24s24 10.7 24 24-10.7 24-24 24-24-10.7-24-24z"/></svg>